<svg xmlns="http://www.w3.org/2000/svg" width="54" height="54"><path fill="#28a85a" d="M26.953 53.907c14.886 0 26.954-12.068 26.954-26.954C53.907 12.067 41.839 0 26.953 0 12.067 0 0 12.067 0 26.953s12.067 26.954 26.953 26.954z"/><path fill="#fff" d="M26.954 51.239c13.412 0 24.285-10.873 24.285-24.285 0-13.411-10.873-24.284-24.285-24.284C13.543 2.67 2.67 13.543 2.67 26.954c0 13.412 10.873 24.285 24.284 24.285z"/><g><path fill="#222" d="M20.978 30.036H14.32c.403-.869.869-1.753 1.381-2.668a35.96 35.96 0 0 1 1.645-2.667 44.8 44.8 0 0 1 1.8-2.497 33.934 33.934 0 0 1 1.83-2.156zM11.59 32.32h9.388v5.354h2.715V32.32h2.483v-2.296h-2.483V16.71h-2.7a41.248 41.248 0 0 0-2.886 3.274 54.656 54.656 0 0 0-2.7 3.693 58.529 58.529 0 0 0-2.25 3.647c-.651 1.18-1.18 2.219-1.567 3.103zM41.59 22.084c0 .73-.14 1.428-.435 2.11a10.613 10.613 0 0 1-1.164 2.003 20.374 20.374 0 0 1-1.63 1.94c-.604.635-1.21 1.256-1.815 1.861-.341.342-.745.745-1.195 1.21-.45.466-.884.947-1.288 1.46a11.79 11.79 0 0 0-1.008 1.458c-.28.465-.404.869-.404 1.21h9.652v2.39H29.594c-.015-.124-.03-.248-.03-.357v-.326c0-.946.155-1.83.465-2.653.31-.823.714-1.583 1.226-2.312.496-.73 1.07-1.412 1.691-2.064.62-.652 1.242-1.273 1.847-1.878.496-.48.977-.962 1.443-1.443.45-.48.853-.946 1.21-1.427.357-.482.636-.963.854-1.475a3.97 3.97 0 0 0 .31-1.598c0-.605-.093-1.117-.295-1.536a2.964 2.964 0 0 0-.776-1.055 2.989 2.989 0 0 0-1.132-.621 5.035 5.035 0 0 0-1.381-.202c-.59 0-1.118.078-1.599.249a7.162 7.162 0 0 0-1.303.558c-.388.217-.714.435-.962.667-.264.233-.466.404-.605.528l-1.397-2.002c.186-.201.45-.45.822-.745a7.274 7.274 0 0 1 1.304-.837 9.37 9.37 0 0 1 1.691-.668 7.074 7.074 0 0 1 2.033-.279c2.203 0 3.848.512 4.95 1.52 1.07 1.025 1.63 2.452 1.63 4.314z"/></g></svg>