<svg width="80" height="80" xmlns="http://www.w3.org/2000/svg"><circle r="40" cy="40" cx="40" fill="#e53935"/><circle r="36" cy="40" cx="40" fill="#fff"/><circle r="14" cy="14" cx="66" fill="#fff"/><g aria-label="WP" style="line-height:1.25" font-size="14.608" letter-spacing="0" word-spacing="0" fill="#424242" stroke-width=".365" font-weight="500" font-family="Ubuntu"><path d="M62.348 10.129q.234.789.497 1.65.263.848.54 1.71.292.847.57 1.68.292.818.555 1.548.22-.789.424-1.709.204-.935.409-1.928.204-1.008.394-2.045.205-1.038.38-2.046h1.899q-.511 2.747-1.14 5.289-.628 2.527-1.402 4.835h-1.753q-1.14-2.951-2.206-6.442-.54 1.767-1.095 3.36-.555 1.592-1.11 3.082h-1.754q-.788-2.308-1.417-4.835-.613-2.542-1.124-5.289h1.972q.175.994.365 2.03.204 1.038.409 2.046.219.993.438 1.928.22.935.438 1.724.278-.745.556-1.563.292-.833.57-1.68.277-.862.525-1.71.263-.846.482-1.635zM72.428 8.887q2.206 0 3.374.804 1.183.803 1.183 2.512 0 .891-.32 1.534-.308.628-.907 1.037-.599.395-1.46.585-.862.19-1.973.19h-.92v3.564h-1.84V9.135q.642-.146 1.416-.19.79-.058 1.447-.058zm.131 1.592q-.701 0-1.154.044v3.448h.891q1.33 0 2.045-.365.716-.38.716-1.417 0-.497-.19-.833-.19-.336-.526-.526t-.803-.263q-.453-.088-.979-.088z" style="-inkscape-font-specification:'Ubuntu Medium'"/></g><g fill="#e53935" stroke="#e53935" stroke-width="10.481" stroke-linecap="round" stroke-linejoin="bevel"><path d="M56.72 21.706l-14.946-4.408a6.258 6.258 0 00-3.548 0L23.28 21.706a2.628 2.628 0 00-1.874 2.506V36.59a28.094 28.094 0 004.931 15.951 28.229 28.229 0 0012.675 10.224 2.619 2.619 0 001.976 0A28.228 28.228 0 0053.663 52.54a28.095 28.095 0 004.93-15.95V24.211c0-1.15-.77-2.181-1.873-2.506zm-.217 14.883a26.013 26.013 0 01-4.564 14.77A26.144 26.144 0 0140.2 60.827a.528.528 0 01-.4 0 26.143 26.143 0 01-11.738-9.47 26.013 26.013 0 01-4.565-14.769V24.212c0-.23.154-.436.375-.501l14.945-4.408a4.177 4.177 0 012.366 0l14.946 4.408c.22.065.374.27.374.501z" stroke-width=".93993608"/><path d="M51.583 26.328l-11.14-3.285a1.564 1.564 0 00-.886 0l-11.14 3.285a1.577 1.577 0 00-1.124 1.504v8.757c0 4.628 1.4 9.066 4.048 12.836a22.504 22.504 0 007.933 6.979 1.563 1.563 0 001.452 0 22.506 22.506 0 007.933-6.98 22.214 22.214 0 004.048-12.835v-8.757c0-.69-.462-1.309-1.124-1.504zm-.966 10.261c0 4.195-1.269 8.218-3.668 11.634a20.419 20.419 0 01-6.949 6.2 20.42 20.42 0 01-6.948-6.2 20.134 20.134 0 01-3.668-11.634v-8.366L40 25.092l10.617 3.13z" stroke-width=".93993608"/></g></svg>