<svg width="42" height="51.617" xmlns="http://www.w3.org/2000/svg"><g fill="#a0a5ab" stroke="#a0a5ab" stroke-width=".94" stroke-linecap="round" stroke-linejoin="bevel"><path d="M39.419 5.656L22.955.801a6.894 6.894 0 00-3.909 0L2.582 5.656a2.895 2.895 0 00-2.064 2.76v13.636A30.948 30.948 0 005.95 39.624a31.097 31.097 0 0013.962 11.262 2.885 2.885 0 002.177 0A31.095 31.095 0 0036.05 39.622a30.949 30.949 0 005.431-17.57V8.416a2.894 2.894 0 00-2.063-2.76zm-.24 16.395a28.655 28.655 0 01-5.027 16.27 28.8 28.8 0 01-12.931 10.43.582.582 0 01-.44 0A28.799 28.799 0 017.85 38.32 28.655 28.655 0 012.82 22.05V8.417c0-.253.17-.48.413-.552l16.463-4.856a4.601 4.601 0 012.607 0l16.464 4.856a.578.578 0 01.412.552z" stroke-width="1.0354851999999999"/><path d="M33.76 10.748L21.49 7.129a1.723 1.723 0 00-.976 0L8.24 10.748a1.737 1.737 0 00-1.238 1.657v9.646c0 5.098 1.542 9.987 4.459 14.14a24.79 24.79 0 008.739 7.688 1.722 1.722 0 001.6 0 24.792 24.792 0 008.738-7.69A24.47 24.47 0 0035 22.052v-9.646c0-.76-.51-1.442-1.239-1.657zM32.696 22.05c0 4.621-1.398 9.053-4.04 12.816A22.493 22.493 0 0121 41.697a22.494 22.494 0 01-7.654-6.83 22.18 22.18 0 01-4.04-12.816v-9.216L21 9.386l11.695 3.448z" stroke-width="1.0354851999999999"/></g></svg>